<svg data-v-423bf9ae="" xmlns="http://www.w3.org/2000/svg" viewBox="0 0 203.5339114152832 180" class="iconAbove"><!----><defs data-v-423bf9ae=""><linearGradient data-v-423bf9ae="" gradientTransform="rotate(25)" id="9eaa4b69-e9ed-44c1-9441-8bcc81258522" x1="0%" y1="0%" x2="100%" y2="0%"><stop data-v-423bf9ae="" offset="0%" style="stop-color: rgb(201, 58, 95); stop-opacity: 1;"></stop><stop data-v-423bf9ae="" offset="100%" style="stop-color: rgb(239, 176, 202); stop-opacity: 1;"></stop></linearGradient></defs><!----><g data-v-423bf9ae="" id="07335cd9-101b-4c5d-a948-82db4042ee80" fill="#ffffff" transform="matrix(5.174049192422438,0,0,5.174049192422438,-0.3621844562813692,99.64288048355766)"><path d="M1.61 6.51L0.07 7.80L0.19 8.00L0.67 7.64L0.67 7.64Q1.21 7.67 0.94 8.76L0.94 8.76L0.38 11.57L0.38 11.57Q0.19 12.58 0.96 12.71L0.96 12.71L2.51 11.44L2.40 11.31L1.93 11.64L1.93 11.64Q1.68 11.53 1.89 10.62L1.89 10.62L2.41 8.05L2.99 7.63L2.99 7.63Q4.18 7.59 3.90 9.03L3.90 9.03L3.40 11.54L3.40 11.54Q3.19 12.54 3.93 12.69L3.93 12.69L5.48 11.43L5.38 11.25L4.91 11.62L4.91 11.62Q4.68 11.59 4.84 10.81L4.84 10.81L5.38 8.11L5.97 7.63L5.97 7.63Q7.03 7.71 6.86 9.03L6.86 9.03L6.35 11.54L6.35 11.54Q6.15 12.54 6.89 12.69L6.89 12.69L8.44 11.43L8.29 11.29L7.94 11.57L7.94 11.57Q7.63 11.54 7.81 10.77L7.81 10.77L8.29 8.40L8.29 8.40Q8.61 6.71 6.96 6.54L6.96 6.54L5.37 7.73L5.37 7.73Q5.27 6.62 3.94 6.51L3.94 6.51L2.41 7.73L2.41 7.73Q2.48 6.64 1.61 6.51L1.61 6.51ZM11.89 6.54L11.89 6.54Q11.20 6.79 10.42 7.53L10.42 7.53L10.42 7.53Q8.53 9.04 8.73 10.32L8.73 10.32L8.73 10.32Q8.93 11.59 9.55 12.30L9.55 12.30L9.55 12.30Q10.17 13.02 10.84 12.52L10.84 12.52L10.84 12.52Q11.86 11.89 12.87 10.76L12.87 10.76L12.73 10.61L12.73 10.61Q12.23 11.13 11.69 11.42L11.69 11.42L11.69 11.42Q10.94 11.79 10.41 10.68L10.41 10.68L10.41 10.68Q9.88 9.57 10.06 8.67L10.06 8.67L10.06 8.67Q10.23 7.77 10.81 7.57L10.81 7.57L10.81 7.57Q11.40 7.37 11.71 7.83L11.71 7.83L11.71 7.83Q12.02 8.29 11.72 8.63L11.72 8.63L11.72 8.63Q11.43 8.98 10.88 9.33L10.88 9.33L10.29 9.71L10.44 10.00L12.43 8.63L13.08 8.14L13.08 8.14Q13.39 7.21 12.96 6.84L12.96 6.84L12.96 6.84Q12.52 6.47 11.89 6.54L11.89 6.54ZM16.42 6.52L16.42 6.52Q15.47 7.02 14.49 8.07L14.49 8.07L14.49 8.07Q13.51 9.11 13.27 9.85L13.27 9.85L13.27 9.85Q13.03 10.59 13.61 11.64L13.61 11.64L13.61 11.64Q14.20 12.69 14.62 12.75L14.62 12.75L14.62 12.75Q15.61 12.04 16.23 11.63L16.23 11.63L16.23 11.63Q15.90 13.90 15.74 14.23L15.74 14.23L15.74 14.23Q15.10 14.54 14.52 14.35L14.52 14.35L14.52 14.35Q13.94 14.16 13.35 13.30L13.35 13.30L12.34 14.36L12.34 14.36Q13.00 15.22 13.62 15.34L13.62 15.34L13.62 15.34Q14.24 15.47 14.72 15.30L14.72 15.30L14.72 15.30Q15.21 15.12 16.28 14.11L16.28 14.11L16.28 14.11Q17.36 13.10 17.49 11.99L17.49 11.99L17.49 11.99Q17.62 10.87 18.03 8.92L18.03 8.92L18.03 8.92Q18.44 6.97 19.00 6.67L19.00 6.67L18.95 6.51L16.42 6.52ZM15.09 7.81L17.34 7.81L17.34 7.81Q16.88 8.28 16.77 8.83L16.77 8.83L16.29 11.22L16.29 11.22Q15.20 11.95 14.59 10.76L14.59 10.76L14.59 10.76Q13.98 9.56 15.09 7.81L15.09 7.81ZM22.79 12.71L24.34 11.42L24.21 11.22L23.73 11.58L23.73 11.58Q23.19 11.55 23.47 10.46L23.47 10.46L24.03 7.66L24.03 7.66Q24.21 6.64 23.45 6.51L23.45 6.51L21.90 7.78L22.00 7.92L22.47 7.58L22.47 7.58Q22.78 7.68 22.51 8.61L22.51 8.61L22.00 11.17L21.25 11.71L21.25 11.71Q20.20 11.63 20.50 10.19L20.50 10.19L21.01 7.68L21.01 7.68Q21.21 6.69 20.47 6.54L20.47 6.54L18.92 7.79L19.02 7.97L19.50 7.60L19.50 7.60Q19.77 7.64 19.52 8.61L19.52 8.61L19.11 10.66L19.11 10.66Q18.90 11.69 19.37 12.21L19.37 12.21L19.37 12.21Q19.84 12.73 20.49 12.76L20.49 12.76L22.00 11.49L22.00 11.49Q21.92 12.58 22.79 12.71L22.79 12.71ZM25.96 6.51L24.41 7.80L24.53 8.00L25.01 7.64L25.01 7.64Q25.55 7.67 25.28 8.76L25.28 8.76L24.72 11.57L24.72 11.57Q24.53 12.58 25.30 12.71L25.30 12.71L26.85 11.44L26.74 11.31L26.28 11.64L26.28 11.64Q26.02 11.53 26.24 10.62L26.24 10.62L26.75 8.05L27.34 7.63L27.34 7.63Q28.52 7.59 28.25 9.03L28.25 9.03L27.74 11.54L27.74 11.54Q27.54 12.54 28.27 12.69L28.27 12.69L29.83 11.43L29.72 11.25L29.25 11.62L29.25 11.62Q29.02 11.59 29.18 10.81L29.18 10.81L29.72 8.11L30.31 7.63L30.31 7.63Q31.38 7.71 31.20 9.03L31.20 9.03L30.69 11.54L30.69 11.54Q30.49 12.54 31.23 12.69L31.23 12.69L32.78 11.43L32.63 11.29L32.28 11.57L32.28 11.57Q31.97 11.54 32.16 10.77L32.16 10.77L32.63 8.40L32.63 8.40Q32.96 6.71 31.30 6.54L31.30 6.54L29.71 7.73L29.71 7.73Q29.61 6.62 28.29 6.51L28.29 6.51L26.75 7.73L26.75 7.73Q26.82 6.64 25.96 6.51L25.96 6.51ZM35.78 3.80L34.31 4.94L34.31 4.94Q35.03 5.07 34.88 6.04L34.88 6.04L36.36 5.02L36.36 5.02Q36.58 4.12 35.78 3.80L35.78 3.80ZM35.36 6.44L33.40 7.82L33.48 8.07L33.95 7.77L33.95 7.77Q34.32 7.77 34.03 8.80L34.03 8.80L33.48 11.58L33.48 11.58Q33.35 12.58 34.10 12.71L34.10 12.71L35.70 11.40L35.58 11.25L35.13 11.59L35.13 11.59Q34.75 11.57 35.01 10.53L35.01 10.53L35.58 7.64L35.58 7.64Q35.78 6.57 35.36 6.44L35.36 6.44ZM38.78 3.80L37.31 4.94L37.31 4.94Q38.03 5.07 37.88 6.04L37.88 6.04L39.36 5.02L39.36 5.02Q39.58 4.12 38.78 3.80L38.78 3.80ZM38.36 6.44L36.40 7.82L36.48 8.07L36.96 7.77L36.96 7.77Q37.32 7.77 37.03 8.80L37.03 8.80L36.48 11.58L36.48 11.58Q36.35 12.58 37.10 12.71L37.10 12.71L38.71 11.40L38.58 11.25L38.13 11.59L38.13 11.59Q37.75 11.57 38.01 10.53L38.01 10.53L38.58 7.64L38.58 7.64Q38.78 6.57 38.36 6.44L38.36 6.44Z"></path></g><!----><g data-v-423bf9ae="" id="41b5dc53-68af-470f-9b80-021d5341e784" transform="matrix(1.0868111504448785,0,0,1.0868111504448785,46.744738109884196,-0.23894260335429607)" stroke="none" fill="#ffffff"><g clip-rule="evenodd"><path d="M12.983 10.59l17.018 88.223-5.872-59.049 29.021-1.892-.054-9.883L64.549 1 53.622 18.977z"></path><path d="M59.389 54.548l5.16-53.541-8.74 39.716-19.612 1.045 1.57 20.462-7.766 36.583 12.057-39.899z"></path><path d="M62.8 67.182l.549-10.453-15.979 3.755-.032 11.797-17.337 26.532 21.68-27.616zM65.711 62.394l14.841-4.731 1.509-12.532-15.899 2.095zM72.07 44.502l10.988-1.417 1.581-10.278-8.079-.373L64.549 1l8.43 30.967z"></path><path d="M87.413 31.294l1.256-9.506-9.544-2.694L64.549 1l14.483 22.437-.422 7z"></path></g></g><!----></svg>